<svg width="88" height="42" viewBox="0 0 88 42" fill="none" xmlns="http://www.w3.org/2000/svg">
<path d="M31.0876 4.83737C30.6528 5.1829 30.1165 5.71559 29.4788 6.43543C28.8412 7.15528 28.189 7.93272 27.5223 8.76774C26.8556 9.57397 26.2179 10.3802 25.6092 11.1864C25.0005 11.9639 24.5077 12.5829 24.1309 13.0436C22.3048 15.3183 20.4932 17.5931 18.696 19.8678C16.8989 22.1425 15.1017 24.4172 13.3046 26.6919L10.2176 30.5791C9.89875 30.9822 9.5799 31.3853 9.26105 31.7885C8.94221 32.1916 8.60887 32.5803 8.26103 32.9546L2.43483 30.4495C4.72473 27.7429 7.00014 25.0363 9.26105 22.3297C11.522 19.623 13.7539 16.8732 15.9568 14.0802C17.1743 12.5541 18.3917 11.0425 19.6091 9.54517C20.8265 8.0191 21.9859 6.46423 23.0874 4.88056L0 5.01014V0.604672C4.81169 0.691053 9.59439 0.734244 14.3481 0.734244C19.1018 0.70545 23.87 0.619069 28.6527 0.475099C29.0296 0.475099 29.4064 0.475099 29.7832 0.475099C30.189 0.446305 30.5803 0.403114 30.9571 0.345527L31.0876 4.83737Z" fill="white"/>
<path d="M88 20.6884C88 22.2433 87.6956 23.6254 87.0869 24.8347C86.4782 26.0153 85.6666 27.0663 84.6521 27.9877C83.6376 28.9091 82.4637 29.6865 81.1303 30.32C79.7969 30.9534 78.4056 31.4717 76.9563 31.8748C75.536 32.278 74.1012 32.5659 72.6519 32.7387C71.2026 32.9402 69.8547 33.041 68.6083 33.041C67.3909 33.041 66.0865 32.9402 64.6952 32.7387C63.3039 32.5659 61.9125 32.278 60.5212 31.8748C59.1589 31.4429 57.84 30.8958 56.5646 30.2336C55.2892 29.5713 54.1588 28.7795 53.1732 27.8581C52.1877 26.9367 51.4051 25.8857 50.8254 24.7052C50.2456 23.4958 49.9558 22.1281 49.9558 20.602C49.9558 18.8456 50.4051 17.1756 51.3036 15.5919C52.2022 13.9794 53.3761 12.4822 54.8254 11.1C56.2747 9.71794 57.9124 8.43661 59.7386 7.25606C61.5937 6.07551 63.4778 5.02453 65.3909 4.10313C67.3039 3.15293 69.159 2.3467 70.9562 1.68444C72.7823 0.993389 74.3765 0.431908 75.7389 0L80.7825 2.93698C79.2462 3.36889 77.652 3.87278 75.9998 4.44866C74.3765 5.02453 72.7533 5.658 71.1301 6.34905C69.5359 7.04011 67.9851 7.80314 66.4778 8.63817C64.9706 9.47319 63.5792 10.3802 62.3038 11.3592C63.5502 10.9561 64.8256 10.6681 66.13 10.4954C67.4344 10.3226 68.7388 10.2362 70.0431 10.2362C71.0576 10.2362 72.2026 10.3226 73.478 10.4954C74.7823 10.6681 76.1012 10.9273 77.4346 11.2728C78.7679 11.6183 80.0578 12.079 81.3042 12.6549C82.5796 13.202 83.7101 13.8643 84.6956 14.6417C85.7101 15.3903 86.5072 16.2685 87.0869 17.2763C87.6956 18.2841 88 19.4215 88 20.6884ZM69.3909 14.2098C68.6663 14.2098 67.8547 14.2818 66.9561 14.4257C66.0865 14.5409 65.188 14.7281 64.2604 14.9872C63.3328 15.2464 62.4343 15.5775 61.5647 15.9806C60.6951 16.3837 59.9125 16.8732 59.2168 17.4491C58.5501 17.9962 57.9994 18.644 57.5646 19.3927C57.1588 20.1125 56.9559 20.9332 56.9559 21.8546C56.9559 23.0639 57.3472 24.1149 58.1298 25.0075C58.9415 25.9001 59.9125 26.6487 61.0429 27.2534C62.1734 27.8293 63.3763 28.2612 64.6517 28.5491C65.9271 28.8083 67.0431 28.9379 67.9996 28.9379C69.246 28.9379 70.6373 28.8227 72.1736 28.5923C73.7099 28.3332 75.1592 27.9013 76.5215 27.2966C77.8839 26.6919 79.0288 25.8713 79.9564 24.8347C80.8839 23.7981 81.3477 22.488 81.3477 20.9044C81.3477 19.695 80.9129 18.6728 80.0433 17.8378C79.1737 16.974 78.1157 16.2829 76.8693 15.7647C75.6229 15.2176 74.3041 14.8289 72.9127 14.5985C71.5504 14.3394 70.3765 14.2098 69.3909 14.2098Z" fill="white"/>
<path d="M42.5978 42H26.417V40.4836L35.3851 31.4612C38.0056 28.8329 39.3158 26.0529 39.3158 23.1212C39.3158 21.3268 38.7943 19.8357 37.7512 18.6479C36.7335 17.4601 35.436 16.8662 33.8586 16.8662C32.7137 16.8662 31.7088 17.0431 30.8438 17.3969C31.4289 17.5991 31.9123 17.9656 32.294 18.4963C32.6756 19.0017 32.8664 19.6209 32.8664 20.3538C32.8664 21.0868 32.5611 21.7565 31.9505 22.363C31.3399 22.9696 30.6148 23.2728 29.7752 23.2728C28.9357 23.2728 28.2233 22.9822 27.6382 22.4009C27.053 21.7944 26.7604 21.0741 26.7604 20.2401C26.7604 18.6227 27.6127 17.3337 29.3173 16.3734C31.0473 15.3877 33.1971 14.8949 35.7667 14.8949C38.3363 14.8949 40.448 15.5773 42.1017 16.942C43.7554 18.2815 44.5822 19.9368 44.5822 21.9081C44.5822 23.4245 44.0988 24.8398 43.132 26.154C42.1653 27.4681 40.3716 29.3636 37.7512 31.8403L30.7675 38.5124H37.1024C38.7307 38.5124 39.9137 38.2849 40.6515 37.83C41.3893 37.3751 41.8854 36.5663 42.1398 35.4038L42.407 34.0391H43.8953L44.9257 40.4078C44.9257 40.9133 44.8112 41.2924 44.5822 41.5451C44.3532 41.7725 44.0988 41.9115 43.819 41.9621C43.5645 41.9874 43.1575 42 42.5978 42Z" fill="white"/>
</svg>
